<?xml version="1.0" encoding="utf-8"?>
<!-- Svg Vector Icons : http://www.onlinewebfonts.com/icon -->
<!DOCTYPE svg PUBLIC "-//W3C//DTD SVG 1.1//EN" "http://www.w3.org/Graphics/SVG/1.1/DTD/svg11.dtd">
<svg version="1.1" xmlns="http://www.w3.org/2000/svg" xmlns:xlink="http://www.w3.org/1999/xlink" x="0px" y="0px" viewBox="0 0 1000 1000" enable-background="new 0 0 1000 1000" xml:space="preserve">
<metadata> Svg Vector Icons : http://www.onlinewebfonts.com/icon </metadata>
<g><g><g><g><path d="M279.6,337.6h504.6V306c0-26-21.3-47.3-47.3-47.3H528.6v-27.5c0-39.2-31.9-70.9-70.9-70.9H336.5c-18.9,0-36.7,7.4-50.2,20.9s-20.8,31.1-20.8,50.1v27.6H57.3C31.3,258.7,10,280,10,306v422.5l159-322.2C188.4,367.1,236,337.6,279.6,337.6z M312.9,231.2c0-6.3,2.6-12.2,7-16.7c4.4-4.5,10.4-7,16.7-7h121.1c13.1,0,23.6,10.6,23.6,23.7v27.6H312.9L312.9,231.2L312.9,231.2z"/><path d="M959.2,384.8H279.6c-26,0-56.7,19.1-68.1,42.4L28.7,797.4c-11.5,23.3,0.4,42.3,26.4,42.3h679.6c26,0,56.8-19.1,68.2-42.3l182.7-370.2C997.1,403.9,985.3,384.8,959.2,384.8z"/></g></g><g></g><g></g><g></g><g></g><g></g><g></g><g></g><g></g><g></g><g></g><g></g><g></g><g></g><g></g><g></g></g><g></g><g></g><g></g><g></g><g></g><g></g><g></g><g></g><g></g><g></g><g></g><g></g><g></g><g></g><g></g></g>
</svg>